<svg xmlns="http://www.w3.org/2000/svg" viewBox="0 0 1200 320" width="1200" height="320" role="img" aria-label="Nisa Maasoglu, Software Engineer — turning noisy signals into decisions">
  <defs>
    <linearGradient id="fade" x1="0" y1="0" x2="1" y2="0">
      <stop offset="0%" stop-color="#8FA3A8" stop-opacity="0.95"/>
      <stop offset="55%" stop-color="#8FA3A8" stop-opacity="0.35"/>
      <stop offset="80%" stop-color="#8FA3A8" stop-opacity="0"/>
    </linearGradient>
    <linearGradient id="rise" x1="0" y1="0" x2="1" y2="0">
      <stop offset="0%" stop-color="#4FD1C5" stop-opacity="0"/>
      <stop offset="30%" stop-color="#4FD1C5" stop-opacity="0.9"/>
      <stop offset="100%" stop-color="#4FD1C5" stop-opacity="1"/>
    </linearGradient>
  </defs>

  <rect width="1200" height="320" fill="#0E1A22"/>

  <!-- baseline grid -->
  <g stroke="#1D2E38" stroke-width="1">
    <line x1="470" y1="62" x2="1140" y2="62"/>
    <line x1="470" y1="150" x2="1140" y2="150"/>
    <line x1="470" y1="238" x2="1140" y2="238"/>
  </g>

  <!-- identity -->
  <text x="64" y="120" font-family="Georgia,'Times New Roman',serif" font-size="46" fill="#EAF0EE" letter-spacing="-0.5">Nisa Maa&#351;o&#287;lu</text>
  <text x="66" y="152" font-family="'IBM Plex Mono',Menlo,monospace" font-size="13" fill="#4FD1C5" letter-spacing="4.5">SOFTWARE ENGINEER</text>

  <line x1="66" y1="182" x2="330" y2="182" stroke="#263A45" stroke-width="1"/>

  <text x="66" y="212" font-family="'IBM Plex Mono',Menlo,monospace" font-size="12.5" fill="#93A8AD">A clean clone runs.</text>
  <text x="66" y="236" font-family="'IBM Plex Mono',Menlo,monospace" font-size="12.5" fill="#93A8AD">What cannot be measured is</text>
  <text x="66" y="256" font-family="'IBM Plex Mono',Menlo,monospace" font-size="12.5" fill="#93A8AD">labelled, not faked.</text>

  <!-- the signal: noisy input resolving into discrete decisions -->
  <path d="M 470.0 154.7 L 472.6 152.2 L 475.2 153.3 L 477.8 156.4 L 480.3 126.2 L 482.9 130.1 L 485.5 150.2 L 488.1 113.5 L 490.7 76.1 L 493.3 125.0 L 495.9 140.9 L 498.5 166.7 L 501.0 135.3 L 503.6 100.9 L 506.2 162.6 L 508.8 90.1 L 511.4 123.9 L 514.0 118.0 L 516.6 130.8 L 519.2 106.9 L 521.7 109.0 L 524.3 135.1 L 526.9 138.6 L 529.5 128.0 L 532.1 142.1 L 534.7 119.4 L 537.3 136.7 L 539.8 130.3 L 542.4 126.1 L 545.0 123.1 L 547.6 91.1 L 550.2 158.2 L 552.8 140.6 L 555.4 143.1 L 558.0 113.0 L 560.5 141.5 L 563.1 126.1 L 565.7 128.7 L 568.3 146.0 L 570.9 128.8 L 573.5 113.7 L 576.1 123.7 L 578.6 100.2 L 581.2 99.8 L 583.8 137.5 L 586.4 107.4 L 589.0 139.5 L 591.6 114.6 L 594.2 125.7 L 596.8 150.4 L 599.3 100.9 L 601.9 131.1 L 604.5 140.1 L 607.1 80.1 L 609.7 132.4 L 612.3 137.9 L 614.9 115.4 L 617.5 116.9 L 620.0 124.9 L 622.6 150.3 L 625.2 142.0 L 627.8 115.8 L 630.4 125.2 L 633.0 150.8 L 635.6 133.8 L 638.1 145.3 L 640.7 158.3 L 643.3 151.4 L 645.9 170.2 L 648.5 173.2 L 651.1 142.9 L 653.7 159.1 L 656.3 174.7 L 658.8 157.7 L 661.4 166.6 L 664.0 192.9 L 666.6 146.0 L 669.2 177.5 L 671.8 185.1 L 674.4 167.4 L 676.9 176.0 L 679.5 182.0 L 682.1 180.5 L 684.7 171.0 L 687.3 170.0 L 689.9 175.1 L 692.5 172.3 L 695.1 176.5 L 697.6 187.3 L 700.2 163.6 L 702.8 179.4 L 705.4 175.4 L 708.0 177.6 L 710.6 191.6 L 713.2 170.0 L 715.8 175.1 L 718.3 146.9 L 720.9 184.6 L 723.5 179.5 L 726.1 135.7 L 728.7 166.0 L 731.3 167.3 L 733.9 173.7 L 736.4 166.8 L 739.0 159.5 L 741.6 173.3 L 744.2 149.1 L 746.8 141.4 L 749.4 147.4 L 752.0 160.8 L 754.6 154.4 L 757.1 152.4 L 759.7 171.9 L 762.3 149.0 L 764.9 158.4 L 767.5 145.3 L 770.1 167.5 L 772.7 160.7 L 775.3 142.7 L 777.8 163.2 L 780.4 161.9 L 783.0 160.7 L 785.6 155.6 L 788.2 155.0 L 790.8 162.5 L 793.4 149.4 L 795.9 165.9 L 798.5 158.0 L 801.1 146.5 L 803.7 161.1 L 806.3 160.0 L 808.9 154.4 L 811.5 148.6 L 814.1 155.7 L 816.6 141.6 L 819.2 162.8 L 821.8 147.7 L 824.4 150.7 L 827.0 149.9 L 829.6 133.1 L 832.2 142.1 L 834.7 135.6 L 837.3 138.9 L 839.9 129.8 L 842.5 140.7 L 845.1 124.4 L 847.7 118.8 L 850.3 124.5 L 852.9 117.6 L 855.4 118.6 L 858.0 122.0 L 860.6 120.4 L 863.2 113.4 L 865.8 120.1 L 868.4 119.6 L 871.0 114.0 L 873.6 113.1 L 876.1 114.6 L 878.7 118.4 L 881.3 111.2 L 883.9 120.3 L 886.5 115.2 L 889.1 119.4 L 891.7 115.0 L 894.2 114.6 L 896.8 117.7 L 899.4 116.4 L 902.0 115.5 L 904.6 121.5 L 907.2 124.8 L 909.8 124.2 L 912.4 123.6 L 914.9 128.6 L 917.5 129.9 L 920.1 138.8 L 922.7 136.7 L 925.3 141.2 L 927.9 142.8 L 930.5 144.7 L 933.1 146.9 L 935.6 147.6 L 938.2 148.3 L 940.8 150.8 L 943.4 151.4 L 946.0 155.9 L 948.6 159.4 L 951.2 159.2 L 953.7 161.0 L 956.3 160.7 L 958.9 162.0 L 961.5 163.1 L 964.1 164.0 L 966.7 164.4 L 969.3 164.9 L 971.9 165.2 L 974.4 165.4 L 977.0 165.5 L 979.6 165.4 L 982.2 165.3 L 984.8 165.1 L 987.4 164.9 L 990.0 164.7 L 992.5 164.4 L 995.1 164.1 L 997.7 163.8 L 1000.3 163.5 L 1002.9 163.3 L 1005.5 163.2 L 1008.1 163.1 L 1010.7 163.0 L 1013.2 163.1 L 1015.8 163.2 L 1018.4 163.5 L 1021.0 163.8 L 1023.6 164.2 L 1026.2 164.8 L 1028.8 165.4 L 1031.4 166.1 L 1033.9 166.8 L 1036.5 167.6 L 1039.1 168.5 L 1041.7 169.5 L 1044.3 170.4 L 1046.9 171.4 L 1049.5 172.3 L 1052.0 173.3 L 1054.6 174.2 L 1057.2 175.0 L 1059.8 175.8 L 1062.4 176.4 L 1065.0 177.0 L 1067.6 177.4 L 1070.2 177.7 L 1072.7 177.9 L 1075.3 177.9 L 1077.9 177.7 L 1080.5 177.3 L 1083.1 176.7 L 1085.7 176.0 L 1088.3 175.0 L 1090.8 173.9 L 1093.4 172.6 L 1096.0 171.0 L 1098.6 169.3 L 1101.2 167.5 L 1103.8 165.5 L 1106.4 163.3 L 1109.0 161.0 L 1111.5 158.7 L 1114.1 156.2 L 1116.7 153.6 L 1119.3 151.1 L 1121.9 148.5 L 1124.5 145.8 L 1127.1 143.2 L 1129.7 140.7 L 1132.2 138.2 L 1134.8 135.8 L 1137.4 133.5 L 1140.0 131.3" fill="none" stroke="url(#fade)" stroke-width="1.6" stroke-linejoin="round"/>
  <path d="M 819.2 150.0 L 821.8 150.0 L 824.4 150.0 L 827.0 150.0 L 829.6 150.0 L 832.2 150.0 L 834.7 150.0 L 837.3 150.0 L 837.3 128.0 L 839.9 128.0 L 842.5 128.0 L 845.1 128.0 L 847.7 128.0 L 850.3 128.0 L 852.9 128.0 L 855.4 128.0 L 858.0 128.0 L 860.6 128.0 L 863.2 128.0 L 865.8 128.0 L 868.4 128.0 L 868.4 106.0 L 871.0 106.0 L 873.6 106.0 L 876.1 106.0 L 878.7 106.0 L 881.3 106.0 L 883.9 106.0 L 886.5 106.0 L 889.1 106.0 L 891.7 106.0 L 894.2 106.0 L 896.8 106.0 L 899.4 106.0 L 899.4 128.0 L 902.0 128.0 L 904.6 128.0 L 907.2 128.0 L 909.8 128.0 L 912.4 128.0 L 914.9 128.0 L 917.5 128.0 L 920.1 128.0 L 922.7 128.0 L 925.3 128.0 L 927.9 128.0 L 927.9 150.0 L 930.5 150.0 L 933.1 150.0 L 935.6 150.0 L 938.2 150.0 L 940.8 150.0 L 943.4 150.0 L 946.0 150.0 L 948.6 150.0 L 951.2 150.0 L 953.7 150.0 L 956.3 150.0 L 956.3 172.0 L 958.9 172.0 L 961.5 172.0 L 964.1 172.0 L 966.7 172.0 L 969.3 172.0 L 971.9 172.0 L 974.4 172.0 L 977.0 172.0 L 979.6 172.0 L 982.2 172.0 L 984.8 172.0 L 987.4 172.0 L 990.0 172.0 L 992.5 172.0 L 995.1 172.0 L 997.7 172.0 L 1000.3 172.0 L 1002.9 172.0 L 1005.5 172.0 L 1008.1 172.0 L 1010.7 172.0 L 1013.2 172.0 L 1015.8 172.0 L 1018.4 172.0 L 1021.0 172.0 L 1023.6 172.0 L 1026.2 172.0 L 1028.8 172.0 L 1031.4 172.0 L 1033.9 172.0 L 1036.5 172.0 L 1039.1 172.0 L 1041.7 172.0 L 1044.3 172.0 L 1046.9 172.0 L 1049.5 172.0 L 1052.0 172.0 L 1054.6 172.0 L 1057.2 172.0 L 1059.8 172.0 L 1062.4 172.0 L 1065.0 172.0 L 1067.6 172.0 L 1070.2 172.0 L 1072.7 172.0 L 1075.3 172.0 L 1077.9 172.0 L 1080.5 172.0 L 1083.1 172.0 L 1085.7 172.0 L 1088.3 172.0 L 1090.8 172.0 L 1093.4 172.0 L 1096.0 172.0 L 1098.6 172.0 L 1101.2 172.0 L 1103.8 172.0 L 1106.4 172.0 L 1109.0 172.0 L 1111.5 172.0 L 1111.5 150.0 L 1114.1 150.0 L 1116.7 150.0 L 1119.3 150.0 L 1121.9 150.0 L 1124.5 150.0 L 1127.1 150.0 L 1129.7 150.0 L 1132.2 150.0 L 1132.2 128.0 L 1134.8 128.0 L 1137.4 128.0 L 1140.0 128.0" fill="none" stroke="url(#rise)" stroke-width="2.4" stroke-linejoin="miter" stroke-linecap="square"/>

  <!-- terminal decision marker -->
  <rect x="1132" y="119" width="9" height="9" fill="#4FD1C5"/>

  <!-- axis labels -->
  <text x="470" y="286" font-family="'IBM Plex Mono',Menlo,monospace" font-size="10.5" fill="#5E7580" letter-spacing="3.5">SIGNAL</text>
  <text x="1074" y="286" font-family="'IBM Plex Mono',Menlo,monospace" font-size="10.5" fill="#4FD1C5" letter-spacing="3.5">DECISION</text>
  <line x1="530" y1="282" x2="1060" y2="282" stroke="#1D2E38" stroke-width="1"/>
</svg>
