<svg xmlns="http://www.w3.org/2000/svg" viewBox="0 0 1200 340" width="1200" height="340" role="img" aria-label="Nisa Maasoglu, Software Engineer — live signals into decisions">
<defs>
  <clipPath id="scope"><rect x="452" y="16" width="716" height="308"/></clipPath>

  <linearGradient id="sky" x1="0" y1="0" x2="1" y2="1">
    <stop offset="0%"   stop-color="#0B161D"/>
    <stop offset="55%"  stop-color="#0E1D26"/>
    <stop offset="100%" stop-color="#101A2B"/>
  </linearGradient>

  <radialGradient id="aura" cx="72%" cy="45%" r="58%">
    <stop offset="0%"   stop-color="#1BB7A8" stop-opacity="0.20"/>
    <stop offset="100%" stop-color="#1BB7A8" stop-opacity="0"/>
  </radialGradient>

  <linearGradient id="edgeFade" x1="0" y1="0" x2="1" y2="0">
    <stop offset="0%"   stop-color="#0D1A22" stop-opacity="1"/>
    <stop offset="9%"   stop-color="#0D1A22" stop-opacity="0"/>
    <stop offset="91%"  stop-color="#0D1A22" stop-opacity="0"/>
    <stop offset="100%" stop-color="#0D1A22" stop-opacity="1"/>
  </linearGradient>

  <linearGradient id="beam" x1="0" y1="0" x2="1" y2="0">
    <stop offset="0%"   stop-color="#7FFFE9" stop-opacity="0"/>
    <stop offset="50%"  stop-color="#7FFFE9" stop-opacity="0.55"/>
    <stop offset="100%" stop-color="#7FFFE9" stop-opacity="0"/>
  </linearGradient>

  <filter id="glow" x="-60%" y="-60%" width="220%" height="220%">
    <feGaussianBlur stdDeviation="4" result="b"/>
    <feMerge><feMergeNode in="b"/><feMergeNode in="SourceGraphic"/></feMerge>
  </filter>
  <filter id="softglow" x="-60%" y="-60%" width="220%" height="220%">
    <feGaussianBlur stdDeviation="9" result="b"/>
    <feMerge><feMergeNode in="b"/><feMergeNode in="SourceGraphic"/></feMerge>
  </filter>
</defs>

<rect width="1200" height="340" fill="url(#sky)"/>
<rect width="1200" height="340" fill="url(#aura)">
  <animate attributeName="opacity" values="0.75;1;0.75" dur="7s" repeatCount="indefinite"/>
</rect>

<!-- ── identity ─────────────────────────────────────────────── -->
<g>
  <text x="66" y="132" font-family="Georgia,'Iowan Old Style','Times New Roman',serif" font-size="50" fill="#EEF4F1" letter-spacing="-0.6">
    Nisa Maa&#351;o&#287;lu
    <animate attributeName="opacity" values="0;1" dur="1.1s" fill="freeze"/>
  </text>

  <text x="69" y="167" font-family="'IBM Plex Mono',Menlo,Consolas,monospace" font-size="13" fill="#43D9C4" letter-spacing="5">
    SOFTWARE ENGINEER
    <animate attributeName="opacity" values="0;1" begin="0.5s" dur="1s" fill="freeze"/>
  </text>

  <g opacity="0">
    <animate attributeName="opacity" values="0;1" begin="1.1s" dur="1s" fill="freeze"/>
    <line x1="69" y1="198" x2="360" y2="198" stroke="#223B46" stroke-width="1"/>
    <text x="69" y="232" font-family="'IBM Plex Mono',Menlo,monospace" font-size="12.5" fill="#8FA8AE">A clean clone runs.</text>
    <text x="69" y="256" font-family="'IBM Plex Mono',Menlo,monospace" font-size="12.5" fill="#8FA8AE">What cannot be measured</text>
    <text x="69" y="276" font-family="'IBM Plex Mono',Menlo,monospace" font-size="12.5" fill="#8FA8AE">is labelled, not faked.</text>
    <rect x="240" y="265" width="8" height="14" fill="#43D9C4">
      <animate attributeName="opacity" values="1;1;0;0" dur="1.1s" repeatCount="indefinite"/>
    </rect>
  </g>
</g>

<!-- ── live indicator ───────────────────────────────────────── -->
<g opacity="0">
  <animate attributeName="opacity" values="0;1" begin="1.6s" dur="0.8s" fill="freeze"/>
  <circle cx="462" cy="42" r="4" fill="#43D9C4"/>
  <circle cx="462" cy="42" r="4" fill="none" stroke="#43D9C4" stroke-width="1.4">
    <animate attributeName="r" values="4;13" dur="2.2s" repeatCount="indefinite"/>
    <animate attributeName="opacity" values="0.85;0" dur="2.2s" repeatCount="indefinite"/>
  </circle>
  <text x="480" y="46" font-family="'IBM Plex Mono',Menlo,monospace" font-size="10.5" fill="#43D9C4" letter-spacing="3.5">LIVE</text>
</g>

<!-- ── oscilloscope ─────────────────────────────────────────── -->
<g clip-path="url(#scope)">
  <g stroke="#172C36" stroke-width="1">
    <line x1="452" y1="88"  x2="1168" y2="88"/>
    <line x1="452" y1="168" x2="1168" y2="168"/>
    <line x1="452" y1="248" x2="1168" y2="248"/>
  </g>

  <!-- the whole scrolling assembly: 2 periods wide, shifted by exactly 1 period -->
  <g transform="translate(452,0)">
    <g>
      <animateTransform attributeName="transform" type="translate"
                        from="0 0" to="-1200 0" dur="16s" repeatCount="indefinite"/>
      <path d="M 0.0 150.6 L 3.0 146.8 L 6.0 152.0 L 9.0 163.0 L 12.0 167.1 L 15.0 150.9 L 18.0 130.9 L 21.0 126.8 L 24.0 129.0 L 27.0 135.5 L 30.0 141.2 L 33.0 157.5 L 36.0 168.3 L 39.0 147.4 L 42.0 134.1 L 45.0 153.5 L 48.0 186.9 L 51.0 197.8 L 54.0 182.2 L 57.0 163.6 L 60.0 151.3 L 63.0 146.3 L 66.0 148.8 L 69.0 154.6 L 72.0 148.0 L 75.0 147.2 L 78.0 144.2 L 81.0 124.8 L 84.0 119.3 L 87.0 131.8 L 90.0 155.0 L 93.0 167.3 L 96.0 160.5 L 99.0 148.5 L 102.0 138.7 L 105.0 144.3 L 108.0 161.7 L 111.0 171.7 L 114.0 156.2 L 117.0 142.5 L 120.0 152.3 L 123.0 150.7 L 126.0 154.8 L 129.0 171.0 L 132.0 153.0 L 135.0 147.6 L 138.0 175.4 L 141.0 173.2 L 144.0 162.4 L 147.0 161.3 L 150.0 150.7 L 153.0 159.3 L 156.0 166.8 L 159.0 143.5 L 162.0 126.0 L 165.0 118.7 L 168.0 116.6 L 171.0 130.4 L 174.0 152.3 L 177.0 160.7 L 180.0 151.6 L 183.0 154.5 L 186.0 167.6 L 189.0 176.9 L 192.0 176.0 L 195.0 154.6 L 198.0 150.2 L 201.0 183.7 L 204.0 189.2 L 207.0 152.6 L 210.0 130.8 L 213.0 156.1 L 216.0 207.4 L 219.0 216.9 L 222.0 189.9 L 225.0 191.1 L 228.0 192.8 L 231.0 166.9 L 234.0 159.9 L 237.0 175.8 L 240.0 183.5 L 243.0 174.4 L 246.0 165.8 L 249.0 175.1 L 252.0 186.1 L 255.0 204.3 L 258.0 216.1 L 261.0 192.9 L 264.0 180.6 L 267.0 208.7 L 270.0 239.6 L 273.0 227.0 L 276.0 214.2 L 279.0 229.9 L 282.0 215.2 L 285.0 201.1 L 288.0 203.5 L 291.0 183.4 L 294.0 180.7 L 297.0 193.6 L 300.0 187.3 L 303.0 180.8 L 306.0 176.6 L 309.0 176.8 L 312.0 192.5 L 315.0 189.6 L 318.0 171.9 L 321.0 181.6 L 324.0 187.8 L 327.0 162.1 L 330.0 154.0 L 333.0 184.9 L 336.0 203.2 L 339.0 191.1 L 342.0 182.7 L 345.0 171.9 L 348.0 165.4 L 351.0 171.7 L 354.0 174.4 L 357.0 191.3 L 360.0 192.2 L 363.0 163.3 L 366.0 146.9 L 369.0 150.7 L 372.0 161.6 L 375.0 167.9 L 378.0 165.5 L 381.0 164.1 L 384.0 168.0 L 387.0 163.9 L 390.0 159.5 L 393.0 159.4 L 396.0 152.9 L 399.0 138.4 L 402.0 130.1 L 405.0 149.4 L 408.0 172.2 L 411.0 173.7 L 414.0 160.3 L 417.0 152.5 L 420.0 158.5 L 423.0 145.9 L 426.0 151.5 L 429.0 195.6 L 432.0 196.6 L 435.0 164.1 L 438.0 152.6 L 441.0 158.8 L 444.0 161.8 L 447.0 153.2 L 450.0 156.4 L 453.0 148.8 L 456.0 125.7 L 459.0 140.9 L 462.0 165.9 L 465.0 165.9 L 468.0 162.1 L 471.0 179.3 L 474.0 199.8 L 477.0 173.3 L 480.0 148.6 L 483.0 159.8 L 486.0 149.8 L 489.0 124.8 L 492.0 111.6 L 495.0 124.5 L 498.0 155.3 L 501.0 156.7 L 504.0 137.1 L 507.0 117.0 L 510.0 129.3 L 513.0 152.6 L 516.0 142.1 L 519.0 134.9 L 522.0 137.7 L 525.0 141.6 L 528.0 125.3 L 531.0 108.1 L 534.0 118.9 L 537.0 120.6 L 540.0 115.4 L 543.0 124.4 L 546.0 122.9 L 549.0 106.5 L 552.0 114.5 L 555.0 118.6 L 558.0 115.4 L 561.0 138.9 L 564.0 149.5 L 567.0 152.2 L 570.0 154.2 L 573.0 149.6 L 576.0 152.6 L 579.0 169.3 L 582.0 201.4 L 585.0 204.2 L 588.0 186.4 L 591.0 196.8 L 594.0 214.8 L 597.0 203.0 L 600.0 170.5 L 603.0 153.4 L 606.0 165.2 L 609.0 189.5 L 612.0 202.3 L 615.0 198.2 L 618.0 172.0 L 621.0 163.8 L 624.0 176.1 L 627.0 161.9 L 630.0 160.5 L 633.0 195.3 L 636.0 205.2 L 639.0 178.9 L 642.0 179.6 L 645.0 190.7 L 648.0 179.2 L 651.0 163.3 L 654.0 165.8 L 657.0 179.4 L 660.0 163.4 L 663.0 142.5 L 666.0 152.9 L 669.0 182.2 L 672.0 190.1 L 675.0 175.0 L 678.0 175.6 L 681.0 172.8 L 684.0 166.2 L 687.0 197.2 L 690.0 226.2 L 693.0 223.9 L 696.0 211.6 L 699.0 186.2 L 702.0 180.5 L 705.0 193.4 L 708.0 184.8 L 711.0 172.9 L 714.0 168.2 L 717.0 165.2 L 720.0 168.0 L 723.0 158.1 L 726.0 141.9 L 729.0 153.5 L 732.0 175.0 L 735.0 189.4 L 738.0 213.1 L 741.0 228.6 L 744.0 213.3 L 747.0 192.0 L 750.0 195.0 L 753.0 195.8 L 756.0 188.6 L 759.0 192.4 L 762.0 194.0 L 765.0 174.8 L 768.0 159.0 L 771.0 170.4 L 774.0 173.2 L 777.0 171.8 L 780.0 194.4 L 783.0 214.0 L 786.0 199.0 L 789.0 189.2 L 792.0 209.1 L 795.0 200.7 L 798.0 169.1 L 801.0 164.5 L 804.0 170.0 L 807.0 166.5 L 810.0 177.7 L 813.0 202.8 L 816.0 208.7 L 819.0 182.8 L 822.0 160.3 L 825.0 170.0 L 828.0 181.7 L 831.0 184.4 L 834.0 180.7 L 837.0 169.8 L 840.0 160.2 L 843.0 162.4 L 846.0 168.6 L 849.0 153.3 L 852.0 155.1 L 855.0 159.9 L 858.0 135.5 L 861.0 143.9 L 864.0 169.6 L 867.0 154.6 L 870.0 132.4 L 873.0 125.8 L 876.0 113.6 L 879.0 106.3 L 882.0 111.4 L 885.0 110.9 L 888.0 105.0 L 891.0 110.9 L 894.0 140.0 L 897.0 159.2 L 900.0 132.5 L 903.0 118.0 L 906.0 142.3 L 909.0 140.8 L 912.0 135.6 L 915.0 158.0 L 918.0 139.3 L 921.0 119.9 L 924.0 144.7 L 927.0 137.8 L 930.0 123.7 L 933.0 140.6 L 936.0 143.5 L 939.0 147.4 L 942.0 166.3 L 945.0 165.1 L 948.0 149.5 L 951.0 145.4 L 954.0 155.7 L 957.0 171.0 L 960.0 179.8 L 963.0 167.0 L 966.0 149.5 L 969.0 159.5 L 972.0 180.1 L 975.0 161.3 L 978.0 120.6 L 981.0 121.6 L 984.0 165.5 L 987.0 194.4 L 990.0 172.3 L 993.0 142.1 L 996.0 135.4 L 999.0 149.7 L 1002.0 163.0 L 1005.0 177.1 L 1008.0 188.1 L 1011.0 167.9 L 1014.0 164.4 L 1017.0 170.4 L 1020.0 144.5 L 1023.0 146.5 L 1026.0 185.8 L 1029.0 191.8 L 1032.0 172.9 L 1035.0 171.8 L 1038.0 185.7 L 1041.0 175.6 L 1044.0 141.7 L 1047.0 151.6 L 1050.0 194.6 L 1053.0 191.0 L 1056.0 152.3 L 1059.0 134.5 L 1062.0 135.7 L 1065.0 158.1 L 1068.0 183.5 L 1071.0 198.6 L 1074.0 217.3 L 1077.0 210.8 L 1080.0 187.3 L 1083.0 184.8 L 1086.0 196.7 L 1089.0 194.8 L 1092.0 184.4 L 1095.0 181.6 L 1098.0 183.8 L 1101.0 194.4 L 1104.0 199.4 L 1107.0 194.2 L 1110.0 205.3 L 1113.0 224.0 L 1116.0 224.1 L 1119.0 215.0 L 1122.0 210.6 L 1125.0 208.9 L 1128.0 207.8 L 1131.0 208.2 L 1134.0 219.1 L 1137.0 224.4 L 1140.0 201.3 L 1143.0 181.9 L 1146.0 188.9 L 1149.0 195.5 L 1152.0 198.4 L 1155.0 218.8 L 1158.0 225.4 L 1161.0 207.1 L 1164.0 191.4 L 1167.0 184.0 L 1170.0 207.0 L 1173.0 228.6 L 1176.0 193.4 L 1179.0 153.9 L 1182.0 168.2 L 1185.0 190.5 L 1188.0 176.7 L 1191.0 150.9 L 1194.0 142.2 L 1197.0 148.8 L 1200.0 150.6 L 1203.0 146.8 L 1206.0 152.0 L 1209.0 163.0 L 1212.0 167.1 L 1215.0 150.9 L 1218.0 130.9 L 1221.0 126.8 L 1224.0 129.0 L 1227.0 135.5 L 1230.0 141.2 L 1233.0 157.5 L 1236.0 168.3 L 1239.0 147.4 L 1242.0 134.1 L 1245.0 153.5 L 1248.0 186.9 L 1251.0 197.8 L 1254.0 182.2 L 1257.0 163.6 L 1260.0 151.3 L 1263.0 146.3 L 1266.0 148.8 L 1269.0 154.6 L 1272.0 148.0 L 1275.0 147.2 L 1278.0 144.2 L 1281.0 124.8 L 1284.0 119.3 L 1287.0 131.8 L 1290.0 155.0 L 1293.0 167.3 L 1296.0 160.5 L 1299.0 148.5 L 1302.0 138.7 L 1305.0 144.3 L 1308.0 161.7 L 1311.0 171.7 L 1314.0 156.2 L 1317.0 142.5 L 1320.0 152.3 L 1323.0 150.7 L 1326.0 154.8 L 1329.0 171.0 L 1332.0 153.0 L 1335.0 147.6 L 1338.0 175.4 L 1341.0 173.2 L 1344.0 162.4 L 1347.0 161.3 L 1350.0 150.7 L 1353.0 159.3 L 1356.0 166.8 L 1359.0 143.5 L 1362.0 126.0 L 1365.0 118.7 L 1368.0 116.6 L 1371.0 130.4 L 1374.0 152.3 L 1377.0 160.7 L 1380.0 151.6 L 1383.0 154.5 L 1386.0 167.6 L 1389.0 176.9 L 1392.0 176.0 L 1395.0 154.6 L 1398.0 150.2 L 1401.0 183.7 L 1404.0 189.2 L 1407.0 152.6 L 1410.0 130.8 L 1413.0 156.1 L 1416.0 207.4 L 1419.0 216.9 L 1422.0 189.9 L 1425.0 191.1 L 1428.0 192.8 L 1431.0 166.9 L 1434.0 159.9 L 1437.0 175.8 L 1440.0 183.5 L 1443.0 174.4 L 1446.0 165.8 L 1449.0 175.1 L 1452.0 186.1 L 1455.0 204.3 L 1458.0 216.1 L 1461.0 192.9 L 1464.0 180.6 L 1467.0 208.7 L 1470.0 239.6 L 1473.0 227.0 L 1476.0 214.2 L 1479.0 229.9 L 1482.0 215.2 L 1485.0 201.1 L 1488.0 203.5 L 1491.0 183.4 L 1494.0 180.7 L 1497.0 193.6 L 1500.0 187.3 L 1503.0 180.8 L 1506.0 176.6 L 1509.0 176.8 L 1512.0 192.5 L 1515.0 189.6 L 1518.0 171.9 L 1521.0 181.6 L 1524.0 187.8 L 1527.0 162.1 L 1530.0 154.0 L 1533.0 184.9 L 1536.0 203.2 L 1539.0 191.1 L 1542.0 182.7 L 1545.0 171.9 L 1548.0 165.4 L 1551.0 171.7 L 1554.0 174.4 L 1557.0 191.3 L 1560.0 192.2 L 1563.0 163.3 L 1566.0 146.9 L 1569.0 150.7 L 1572.0 161.6 L 1575.0 167.9 L 1578.0 165.5 L 1581.0 164.1 L 1584.0 168.0 L 1587.0 163.9 L 1590.0 159.5 L 1593.0 159.4 L 1596.0 152.9 L 1599.0 138.4 L 1602.0 130.1 L 1605.0 149.4 L 1608.0 172.2 L 1611.0 173.7 L 1614.0 160.3 L 1617.0 152.5 L 1620.0 158.5 L 1623.0 145.9 L 1626.0 151.5 L 1629.0 195.6 L 1632.0 196.6 L 1635.0 164.1 L 1638.0 152.6 L 1641.0 158.8 L 1644.0 161.8 L 1647.0 153.2 L 1650.0 156.4 L 1653.0 148.8 L 1656.0 125.7 L 1659.0 140.9 L 1662.0 165.9 L 1665.0 165.9 L 1668.0 162.1 L 1671.0 179.3 L 1674.0 199.8 L 1677.0 173.3 L 1680.0 148.6 L 1683.0 159.8 L 1686.0 149.8 L 1689.0 124.8 L 1692.0 111.6 L 1695.0 124.5 L 1698.0 155.3 L 1701.0 156.7 L 1704.0 137.1 L 1707.0 117.0 L 1710.0 129.3 L 1713.0 152.6 L 1716.0 142.1 L 1719.0 134.9 L 1722.0 137.7 L 1725.0 141.6 L 1728.0 125.3 L 1731.0 108.1 L 1734.0 118.9 L 1737.0 120.6 L 1740.0 115.4 L 1743.0 124.4 L 1746.0 122.9 L 1749.0 106.5 L 1752.0 114.5 L 1755.0 118.6 L 1758.0 115.4 L 1761.0 138.9 L 1764.0 149.5 L 1767.0 152.2 L 1770.0 154.2 L 1773.0 149.6 L 1776.0 152.6 L 1779.0 169.3 L 1782.0 201.4 L 1785.0 204.2 L 1788.0 186.4 L 1791.0 196.8 L 1794.0 214.8 L 1797.0 203.0 L 1800.0 170.5 L 1803.0 153.4 L 1806.0 165.2 L 1809.0 189.5 L 1812.0 202.3 L 1815.0 198.2 L 1818.0 172.0 L 1821.0 163.8 L 1824.0 176.1 L 1827.0 161.9 L 1830.0 160.5 L 1833.0 195.3 L 1836.0 205.2 L 1839.0 178.9 L 1842.0 179.6 L 1845.0 190.7 L 1848.0 179.2 L 1851.0 163.3 L 1854.0 165.8 L 1857.0 179.4 L 1860.0 163.4 L 1863.0 142.5 L 1866.0 152.9 L 1869.0 182.2 L 1872.0 190.1 L 1875.0 175.0 L 1878.0 175.6 L 1881.0 172.8 L 1884.0 166.2 L 1887.0 197.2 L 1890.0 226.2 L 1893.0 223.9 L 1896.0 211.6 L 1899.0 186.2 L 1902.0 180.5 L 1905.0 193.4 L 1908.0 184.8 L 1911.0 172.9 L 1914.0 168.2 L 1917.0 165.2 L 1920.0 168.0 L 1923.0 158.1 L 1926.0 141.9 L 1929.0 153.5 L 1932.0 175.0 L 1935.0 189.4 L 1938.0 213.1 L 1941.0 228.6 L 1944.0 213.3 L 1947.0 192.0 L 1950.0 195.0 L 1953.0 195.8 L 1956.0 188.6 L 1959.0 192.4 L 1962.0 194.0 L 1965.0 174.8 L 1968.0 159.0 L 1971.0 170.4 L 1974.0 173.2 L 1977.0 171.8 L 1980.0 194.4 L 1983.0 214.0 L 1986.0 199.0 L 1989.0 189.2 L 1992.0 209.1 L 1995.0 200.7 L 1998.0 169.1 L 2001.0 164.5 L 2004.0 170.0 L 2007.0 166.5 L 2010.0 177.7 L 2013.0 202.8 L 2016.0 208.7 L 2019.0 182.8 L 2022.0 160.3 L 2025.0 170.0 L 2028.0 181.7 L 2031.0 184.4 L 2034.0 180.7 L 2037.0 169.8 L 2040.0 160.2 L 2043.0 162.4 L 2046.0 168.6 L 2049.0 153.3 L 2052.0 155.1 L 2055.0 159.9 L 2058.0 135.5 L 2061.0 143.9 L 2064.0 169.6 L 2067.0 154.6 L 2070.0 132.4 L 2073.0 125.8 L 2076.0 113.6 L 2079.0 106.3 L 2082.0 111.4 L 2085.0 110.9 L 2088.0 105.0 L 2091.0 110.9 L 2094.0 140.0 L 2097.0 159.2 L 2100.0 132.5 L 2103.0 118.0 L 2106.0 142.3 L 2109.0 140.8 L 2112.0 135.6 L 2115.0 158.0 L 2118.0 139.3 L 2121.0 119.9 L 2124.0 144.7 L 2127.0 137.8 L 2130.0 123.7 L 2133.0 140.6 L 2136.0 143.5 L 2139.0 147.4 L 2142.0 166.3 L 2145.0 165.1 L 2148.0 149.5 L 2151.0 145.4 L 2154.0 155.7 L 2157.0 171.0 L 2160.0 179.8 L 2163.0 167.0 L 2166.0 149.5 L 2169.0 159.5 L 2172.0 180.1 L 2175.0 161.3 L 2178.0 120.6 L 2181.0 121.6 L 2184.0 165.5 L 2187.0 194.4 L 2190.0 172.3 L 2193.0 142.1 L 2196.0 135.4 L 2199.0 149.7 L 2202.0 163.0 L 2205.0 177.1 L 2208.0 188.1 L 2211.0 167.9 L 2214.0 164.4 L 2217.0 170.4 L 2220.0 144.5 L 2223.0 146.5 L 2226.0 185.8 L 2229.0 191.8 L 2232.0 172.9 L 2235.0 171.8 L 2238.0 185.7 L 2241.0 175.6 L 2244.0 141.7 L 2247.0 151.6 L 2250.0 194.6 L 2253.0 191.0 L 2256.0 152.3 L 2259.0 134.5 L 2262.0 135.7 L 2265.0 158.1 L 2268.0 183.5 L 2271.0 198.6 L 2274.0 217.3 L 2277.0 210.8 L 2280.0 187.3 L 2283.0 184.8 L 2286.0 196.7 L 2289.0 194.8 L 2292.0 184.4 L 2295.0 181.6 L 2298.0 183.8 L 2301.0 194.4 L 2304.0 199.4 L 2307.0 194.2 L 2310.0 205.3 L 2313.0 224.0 L 2316.0 224.1 L 2319.0 215.0 L 2322.0 210.6 L 2325.0 208.9 L 2328.0 207.8 L 2331.0 208.2 L 2334.0 219.1 L 2337.0 224.4 L 2340.0 201.3 L 2343.0 181.9 L 2346.0 188.9 L 2349.0 195.5 L 2352.0 198.4 L 2355.0 218.8 L 2358.0 225.4 L 2361.0 207.1 L 2364.0 191.4 L 2367.0 184.0 L 2370.0 207.0 L 2373.0 228.6 L 2376.0 193.4 L 2379.0 153.9 L 2382.0 168.2 L 2385.0 190.5 L 2388.0 176.7 L 2391.0 150.9 L 2394.0 142.2 L 2397.0 148.8 L 2400.0 150.6"   fill="none" stroke="#5C7B85" stroke-width="1.3" stroke-opacity="0.55"/>
      <path d="M 0.0 151.5 L 3.0 149.7 L 6.0 150.7 L 9.0 153.6 L 12.0 154.6 L 15.0 149.7 L 18.0 143.7 L 21.0 142.6 L 24.0 143.4 L 27.0 145.6 L 30.0 147.6 L 33.0 152.8 L 36.0 156.3 L 39.0 150.3 L 42.0 146.5 L 45.0 152.5 L 48.0 162.6 L 51.0 165.9 L 54.0 161.3 L 57.0 155.6 L 60.0 151.8 L 63.0 150.1 L 66.0 150.7 L 69.0 152.2 L 72.0 150.0 L 75.0 149.5 L 78.0 148.3 L 81.0 142.3 L 84.0 140.4 L 87.0 144.0 L 90.0 150.9 L 93.0 154.5 L 96.0 152.4 L 99.0 148.9 L 102.0 146.1 L 105.0 147.9 L 108.0 153.3 L 111.0 156.5 L 114.0 152.2 L 117.0 148.3 L 120.0 151.5 L 123.0 151.3 L 126.0 152.8 L 129.0 157.8 L 132.0 152.6 L 135.0 151.0 L 138.0 159.4 L 141.0 158.7 L 144.0 155.3 L 147.0 154.8 L 150.0 151.3 L 153.0 153.6 L 156.0 155.4 L 159.0 148.0 L 162.0 142.3 L 165.0 139.7 L 168.0 138.6 L 171.0 142.4 L 174.0 148.6 L 177.0 150.9 L 180.0 148.1 L 183.0 148.9 L 186.0 153.0 L 189.0 156.1 L 192.0 156.4 L 195.0 150.7 L 198.0 150.3 L 201.0 161.5 L 204.0 164.5 L 207.0 155.1 L 210.0 150.3 L 213.0 159.8 L 216.0 177.3 L 219.0 182.3 L 222.0 176.6 L 225.0 179.4 L 228.0 182.3 L 231.0 177.0 L 234.0 177.4 L 237.0 184.6 L 240.0 189.2 L 243.0 188.6 L 246.0 188.1 L 249.0 192.7 L 252.0 197.6 L 255.0 204.5 L 258.0 209.2 L 261.0 203.2 L 264.0 200.1 L 267.0 208.9 L 270.0 218.3 L 273.0 214.4 L 276.0 210.2 L 279.0 214.3 L 282.0 209.2 L 285.0 203.9 L 288.0 203.6 L 291.0 196.3 L 294.0 194.2 L 297.0 196.6 L 300.0 193.3 L 303.0 189.9 L 306.0 187.3 L 309.0 185.9 L 312.0 189.3 L 315.0 187.3 L 318.0 180.8 L 321.0 182.7 L 324.0 183.6 L 327.0 175.1 L 330.0 172.0 L 333.0 180.7 L 336.0 185.7 L 339.0 181.7 L 342.0 178.8 L 345.0 175.3 L 348.0 173.2 L 351.0 174.9 L 354.0 175.6 L 357.0 180.5 L 360.0 180.6 L 363.0 171.8 L 366.0 166.6 L 369.0 167.5 L 372.0 170.4 L 375.0 172.0 L 378.0 170.8 L 381.0 170.0 L 384.0 170.7 L 387.0 168.9 L 390.0 167.0 L 393.0 166.4 L 396.0 163.9 L 399.0 158.9 L 402.0 155.9 L 405.0 161.1 L 408.0 167.5 L 411.0 167.5 L 414.0 163.0 L 417.0 160.3 L 420.0 161.9 L 423.0 157.9 L 426.0 159.3 L 429.0 172.5 L 432.0 172.7 L 435.0 162.8 L 438.0 159.3 L 441.0 161.1 L 444.0 162.0 L 447.0 159.3 L 450.0 160.1 L 453.0 157.6 L 456.0 150.3 L 459.0 154.5 L 462.0 161.4 L 465.0 160.8 L 468.0 158.9 L 471.0 163.1 L 474.0 168.3 L 477.0 159.1 L 480.0 150.5 L 483.0 152.4 L 486.0 148.0 L 489.0 139.0 L 492.0 133.4 L 495.0 135.7 L 498.0 143.4 L 501.0 142.3 L 504.0 134.9 L 507.0 127.5 L 510.0 130.0 L 513.0 135.9 L 516.0 131.9 L 519.0 129.0 L 522.0 129.4 L 525.0 130.4 L 528.0 125.6 L 531.0 120.7 L 534.0 124.6 L 537.0 126.0 L 540.0 125.6 L 543.0 129.6 L 546.0 130.8 L 549.0 127.7 L 552.0 132.0 L 555.0 135.4 L 558.0 136.7 L 561.0 146.1 L 564.0 151.6 L 567.0 154.9 L 570.0 157.9 L 573.0 158.8 L 576.0 162.0 L 579.0 169.2 L 582.0 180.8 L 585.0 183.5 L 588.0 179.9 L 591.0 184.5 L 594.0 191.2 L 597.0 188.8 L 600.0 180.0 L 603.0 175.6 L 606.0 179.7 L 609.0 187.3 L 612.0 191.4 L 615.0 190.3 L 618.0 182.4 L 621.0 179.8 L 624.0 183.3 L 627.0 178.8 L 630.0 178.1 L 633.0 188.3 L 636.0 191.0 L 639.0 182.8 L 642.0 182.8 L 645.0 186.0 L 648.0 182.4 L 651.0 177.6 L 654.0 178.3 L 657.0 182.5 L 660.0 177.8 L 663.0 171.7 L 666.0 175.0 L 669.0 184.1 L 672.0 186.7 L 675.0 182.4 L 678.0 182.8 L 681.0 182.2 L 684.0 180.4 L 687.0 189.9 L 690.0 198.7 L 693.0 198.1 L 696.0 194.4 L 699.0 186.7 L 702.0 184.9 L 705.0 188.6 L 708.0 185.8 L 711.0 182.0 L 714.0 180.4 L 717.0 179.2 L 720.0 179.8 L 723.0 176.5 L 726.0 171.4 L 729.0 174.7 L 732.0 181.0 L 735.0 185.3 L 738.0 192.4 L 741.0 197.1 L 744.0 192.6 L 747.0 186.4 L 750.0 187.6 L 753.0 188.2 L 756.0 186.4 L 759.0 187.9 L 762.0 188.9 L 765.0 183.6 L 768.0 179.3 L 771.0 183.1 L 774.0 184.2 L 777.0 184.0 L 780.0 191.0 L 783.0 196.8 L 786.0 192.2 L 789.0 188.9 L 792.0 194.3 L 795.0 191.1 L 798.0 180.7 L 801.0 178.2 L 804.0 178.5 L 807.0 175.9 L 810.0 177.5 L 813.0 183.1 L 816.0 182.8 L 819.0 172.8 L 822.0 163.7 L 825.0 164.2 L 828.0 165.2 L 831.0 163.6 L 834.0 160.0 L 837.0 154.3 L 840.0 149.1 L 843.0 147.6 L 846.0 147.4 L 849.0 141.0 L 852.0 139.9 L 855.0 139.9 L 858.0 131.5 L 861.0 133.1 L 864.0 140.1 L 867.0 135.3 L 870.0 128.5 L 873.0 126.6 L 876.0 123.3 L 879.0 121.7 L 882.0 124.0 L 885.0 124.9 L 888.0 124.2 L 891.0 127.2 L 894.0 137.3 L 897.0 144.4 L 900.0 137.8 L 903.0 134.9 L 906.0 143.6 L 909.0 144.5 L 912.0 144.3 L 915.0 152.2 L 918.0 147.8 L 921.0 143.0 L 924.0 151.3 L 927.0 150.0 L 930.0 146.5 L 933.0 152.1 L 936.0 153.5 L 939.0 155.1 L 942.0 161.1 L 945.0 161.0 L 948.0 156.5 L 951.0 155.4 L 954.0 158.7 L 957.0 163.4 L 960.0 166.2 L 963.0 162.5 L 966.0 157.5 L 969.0 160.8 L 972.0 167.3 L 975.0 162.0 L 978.0 150.2 L 981.0 150.9 L 984.0 164.6 L 987.0 173.8 L 990.0 167.7 L 993.0 159.2 L 996.0 157.8 L 999.0 162.7 L 1002.0 167.2 L 1005.0 172.0 L 1008.0 175.8 L 1011.0 170.2 L 1014.0 169.6 L 1017.0 171.7 L 1020.0 164.2 L 1023.0 165.1 L 1026.0 177.0 L 1029.0 179.0 L 1032.0 173.4 L 1035.0 173.1 L 1038.0 177.4 L 1041.0 174.4 L 1044.0 164.3 L 1047.0 167.4 L 1050.0 180.4 L 1053.0 179.6 L 1056.0 168.3 L 1059.0 163.3 L 1062.0 164.2 L 1065.0 171.6 L 1068.0 180.0 L 1071.0 185.4 L 1074.0 192.1 L 1077.0 191.3 L 1080.0 185.5 L 1083.0 186.1 L 1086.0 191.2 L 1089.0 192.1 L 1092.0 190.6 L 1095.0 191.3 L 1098.0 193.5 L 1101.0 198.3 L 1104.0 201.2 L 1107.0 201.0 L 1110.0 205.6 L 1113.0 212.3 L 1116.0 213.2 L 1119.0 211.1 L 1122.0 210.3 L 1125.0 209.9 L 1128.0 209.5 L 1131.0 209.3 L 1134.0 212.0 L 1137.0 212.7 L 1140.0 204.7 L 1143.0 197.5 L 1146.0 198.0 L 1149.0 198.2 L 1152.0 197.0 L 1155.0 201.0 L 1158.0 200.7 L 1161.0 192.9 L 1164.0 185.8 L 1167.0 181.2 L 1170.0 185.7 L 1173.0 189.8 L 1176.0 177.0 L 1179.0 163.0 L 1182.0 165.2 L 1185.0 170.1 L 1188.0 164.2 L 1191.0 155.0 L 1194.0 151.1 L 1197.0 151.9 L 1200.0 151.5 L 1203.0 149.7 L 1206.0 150.7 L 1209.0 153.6 L 1212.0 154.6 L 1215.0 149.7 L 1218.0 143.7 L 1221.0 142.6 L 1224.0 143.4 L 1227.0 145.6 L 1230.0 147.6 L 1233.0 152.8 L 1236.0 156.3 L 1239.0 150.3 L 1242.0 146.5 L 1245.0 152.5 L 1248.0 162.6 L 1251.0 165.9 L 1254.0 161.3 L 1257.0 155.6 L 1260.0 151.8 L 1263.0 150.1 L 1266.0 150.7 L 1269.0 152.2 L 1272.0 150.0 L 1275.0 149.5 L 1278.0 148.3 L 1281.0 142.3 L 1284.0 140.4 L 1287.0 144.0 L 1290.0 150.9 L 1293.0 154.5 L 1296.0 152.4 L 1299.0 148.9 L 1302.0 146.1 L 1305.0 147.9 L 1308.0 153.3 L 1311.0 156.5 L 1314.0 152.2 L 1317.0 148.3 L 1320.0 151.5 L 1323.0 151.3 L 1326.0 152.8 L 1329.0 157.8 L 1332.0 152.6 L 1335.0 151.0 L 1338.0 159.4 L 1341.0 158.7 L 1344.0 155.3 L 1347.0 154.8 L 1350.0 151.3 L 1353.0 153.6 L 1356.0 155.4 L 1359.0 148.0 L 1362.0 142.3 L 1365.0 139.7 L 1368.0 138.6 L 1371.0 142.4 L 1374.0 148.6 L 1377.0 150.9 L 1380.0 148.1 L 1383.0 148.9 L 1386.0 153.0 L 1389.0 156.1 L 1392.0 156.4 L 1395.0 150.7 L 1398.0 150.3 L 1401.0 161.5 L 1404.0 164.5 L 1407.0 155.1 L 1410.0 150.3 L 1413.0 159.8 L 1416.0 177.3 L 1419.0 182.3 L 1422.0 176.6 L 1425.0 179.4 L 1428.0 182.3 L 1431.0 177.0 L 1434.0 177.4 L 1437.0 184.6 L 1440.0 189.2 L 1443.0 188.6 L 1446.0 188.1 L 1449.0 192.7 L 1452.0 197.6 L 1455.0 204.5 L 1458.0 209.2 L 1461.0 203.2 L 1464.0 200.1 L 1467.0 208.9 L 1470.0 218.3 L 1473.0 214.4 L 1476.0 210.2 L 1479.0 214.3 L 1482.0 209.2 L 1485.0 203.9 L 1488.0 203.6 L 1491.0 196.3 L 1494.0 194.2 L 1497.0 196.6 L 1500.0 193.3 L 1503.0 189.9 L 1506.0 187.3 L 1509.0 185.9 L 1512.0 189.3 L 1515.0 187.3 L 1518.0 180.8 L 1521.0 182.7 L 1524.0 183.6 L 1527.0 175.1 L 1530.0 172.0 L 1533.0 180.7 L 1536.0 185.7 L 1539.0 181.7 L 1542.0 178.8 L 1545.0 175.3 L 1548.0 173.2 L 1551.0 174.9 L 1554.0 175.6 L 1557.0 180.5 L 1560.0 180.6 L 1563.0 171.8 L 1566.0 166.6 L 1569.0 167.5 L 1572.0 170.4 L 1575.0 172.0 L 1578.0 170.8 L 1581.0 170.0 L 1584.0 170.7 L 1587.0 168.9 L 1590.0 167.0 L 1593.0 166.4 L 1596.0 163.9 L 1599.0 158.9 L 1602.0 155.9 L 1605.0 161.1 L 1608.0 167.5 L 1611.0 167.5 L 1614.0 163.0 L 1617.0 160.3 L 1620.0 161.9 L 1623.0 157.9 L 1626.0 159.3 L 1629.0 172.5 L 1632.0 172.7 L 1635.0 162.8 L 1638.0 159.3 L 1641.0 161.1 L 1644.0 162.0 L 1647.0 159.3 L 1650.0 160.1 L 1653.0 157.6 L 1656.0 150.3 L 1659.0 154.5 L 1662.0 161.4 L 1665.0 160.8 L 1668.0 158.9 L 1671.0 163.1 L 1674.0 168.3 L 1677.0 159.1 L 1680.0 150.5 L 1683.0 152.4 L 1686.0 148.0 L 1689.0 139.0 L 1692.0 133.4 L 1695.0 135.7 L 1698.0 143.4 L 1701.0 142.3 L 1704.0 134.9 L 1707.0 127.5 L 1710.0 130.0 L 1713.0 135.9 L 1716.0 131.9 L 1719.0 129.0 L 1722.0 129.4 L 1725.0 130.4 L 1728.0 125.6 L 1731.0 120.7 L 1734.0 124.6 L 1737.0 126.0 L 1740.0 125.6 L 1743.0 129.6 L 1746.0 130.8 L 1749.0 127.7 L 1752.0 132.0 L 1755.0 135.4 L 1758.0 136.7 L 1761.0 146.1 L 1764.0 151.6 L 1767.0 154.9 L 1770.0 157.9 L 1773.0 158.8 L 1776.0 162.0 L 1779.0 169.2 L 1782.0 180.8 L 1785.0 183.5 L 1788.0 179.9 L 1791.0 184.5 L 1794.0 191.2 L 1797.0 188.8 L 1800.0 180.0 L 1803.0 175.6 L 1806.0 179.7 L 1809.0 187.3 L 1812.0 191.4 L 1815.0 190.3 L 1818.0 182.4 L 1821.0 179.8 L 1824.0 183.3 L 1827.0 178.8 L 1830.0 178.1 L 1833.0 188.3 L 1836.0 191.0 L 1839.0 182.8 L 1842.0 182.8 L 1845.0 186.0 L 1848.0 182.4 L 1851.0 177.6 L 1854.0 178.3 L 1857.0 182.5 L 1860.0 177.8 L 1863.0 171.7 L 1866.0 175.0 L 1869.0 184.1 L 1872.0 186.7 L 1875.0 182.4 L 1878.0 182.8 L 1881.0 182.2 L 1884.0 180.4 L 1887.0 189.9 L 1890.0 198.7 L 1893.0 198.1 L 1896.0 194.4 L 1899.0 186.7 L 1902.0 184.9 L 1905.0 188.6 L 1908.0 185.8 L 1911.0 182.0 L 1914.0 180.4 L 1917.0 179.2 L 1920.0 179.8 L 1923.0 176.5 L 1926.0 171.4 L 1929.0 174.7 L 1932.0 181.0 L 1935.0 185.3 L 1938.0 192.4 L 1941.0 197.1 L 1944.0 192.6 L 1947.0 186.4 L 1950.0 187.6 L 1953.0 188.2 L 1956.0 186.4 L 1959.0 187.9 L 1962.0 188.9 L 1965.0 183.6 L 1968.0 179.3 L 1971.0 183.1 L 1974.0 184.2 L 1977.0 184.0 L 1980.0 191.0 L 1983.0 196.8 L 1986.0 192.2 L 1989.0 188.9 L 1992.0 194.3 L 1995.0 191.1 L 1998.0 180.7 L 2001.0 178.2 L 2004.0 178.5 L 2007.0 175.9 L 2010.0 177.5 L 2013.0 183.1 L 2016.0 182.8 L 2019.0 172.8 L 2022.0 163.7 L 2025.0 164.2 L 2028.0 165.2 L 2031.0 163.6 L 2034.0 160.0 L 2037.0 154.3 L 2040.0 149.1 L 2043.0 147.6 L 2046.0 147.4 L 2049.0 141.0 L 2052.0 139.9 L 2055.0 139.9 L 2058.0 131.5 L 2061.0 133.1 L 2064.0 140.1 L 2067.0 135.3 L 2070.0 128.5 L 2073.0 126.6 L 2076.0 123.3 L 2079.0 121.7 L 2082.0 124.0 L 2085.0 124.9 L 2088.0 124.2 L 2091.0 127.2 L 2094.0 137.3 L 2097.0 144.4 L 2100.0 137.8 L 2103.0 134.9 L 2106.0 143.6 L 2109.0 144.5 L 2112.0 144.3 L 2115.0 152.2 L 2118.0 147.8 L 2121.0 143.0 L 2124.0 151.3 L 2127.0 150.0 L 2130.0 146.5 L 2133.0 152.1 L 2136.0 153.5 L 2139.0 155.1 L 2142.0 161.1 L 2145.0 161.0 L 2148.0 156.5 L 2151.0 155.4 L 2154.0 158.7 L 2157.0 163.4 L 2160.0 166.2 L 2163.0 162.5 L 2166.0 157.5 L 2169.0 160.8 L 2172.0 167.3 L 2175.0 162.0 L 2178.0 150.2 L 2181.0 150.9 L 2184.0 164.6 L 2187.0 173.8 L 2190.0 167.7 L 2193.0 159.2 L 2196.0 157.8 L 2199.0 162.7 L 2202.0 167.2 L 2205.0 172.0 L 2208.0 175.8 L 2211.0 170.2 L 2214.0 169.6 L 2217.0 171.7 L 2220.0 164.2 L 2223.0 165.1 L 2226.0 177.0 L 2229.0 179.0 L 2232.0 173.4 L 2235.0 173.1 L 2238.0 177.4 L 2241.0 174.4 L 2244.0 164.3 L 2247.0 167.4 L 2250.0 180.4 L 2253.0 179.6 L 2256.0 168.3 L 2259.0 163.3 L 2262.0 164.2 L 2265.0 171.6 L 2268.0 180.0 L 2271.0 185.4 L 2274.0 192.1 L 2277.0 191.3 L 2280.0 185.5 L 2283.0 186.1 L 2286.0 191.2 L 2289.0 192.1 L 2292.0 190.6 L 2295.0 191.3 L 2298.0 193.5 L 2301.0 198.3 L 2304.0 201.2 L 2307.0 201.0 L 2310.0 205.6 L 2313.0 212.3 L 2316.0 213.2 L 2319.0 211.1 L 2322.0 210.3 L 2325.0 209.9 L 2328.0 209.5 L 2331.0 209.3 L 2334.0 212.0 L 2337.0 212.7 L 2340.0 204.7 L 2343.0 197.5 L 2346.0 198.0 L 2349.0 198.2 L 2352.0 197.0 L 2355.0 201.0 L 2358.0 200.7 L 2361.0 192.9 L 2364.0 185.8 L 2367.0 181.2 L 2370.0 185.7 L 2373.0 189.8 L 2376.0 177.0 L 2379.0 163.0 L 2382.0 165.2 L 2385.0 170.1 L 2388.0 164.2 L 2391.0 155.0 L 2394.0 151.1 L 2397.0 151.9 L 2400.0 151.5"   fill="none" stroke="#8FB6BD" stroke-width="1.5" stroke-opacity="0.5"/>
      <path d="M 0.0 148.0 L 3.0 148.0 L 6.0 148.0 L 9.0 148.0 L 12.0 148.0 L 15.0 148.0 L 18.0 148.0 L 21.0 148.0 L 24.0 148.0 L 27.0 148.0 L 30.0 148.0 L 33.0 148.0 L 36.0 148.0 L 39.0 148.0 L 42.0 148.0 L 45.0 148.0 L 48.0 148.0 L 51.0 148.0 L 54.0 148.0 L 57.0 148.0 L 60.0 148.0 L 63.0 148.0 L 66.0 148.0 L 69.0 148.0 L 72.0 148.0 L 75.0 148.0 L 78.0 148.0 L 81.0 148.0 L 84.0 148.0 L 87.0 148.0 L 90.0 148.0 L 93.0 148.0 L 96.0 148.0 L 99.0 148.0 L 102.0 148.0 L 105.0 148.0 L 108.0 148.0 L 111.0 148.0 L 114.0 148.0 L 117.0 148.0 L 120.0 148.0 L 123.0 148.0 L 126.0 148.0 L 129.0 148.0 L 132.0 148.0 L 135.0 148.0 L 138.0 148.0 L 141.0 148.0 L 144.0 148.0 L 147.0 148.0 L 150.0 148.0 L 153.0 148.0 L 156.0 148.0 L 159.0 148.0 L 162.0 148.0 L 165.0 148.0 L 168.0 148.0 L 171.0 148.0 L 174.0 148.0 L 177.0 148.0 L 180.0 148.0 L 183.0 148.0 L 186.0 148.0 L 189.0 148.0 L 192.0 148.0 L 195.0 148.0 L 198.0 148.0 L 201.0 148.0 L 204.0 148.0 L 207.0 148.0 L 210.0 148.0 L 210.0 168.0 L 213.0 168.0 L 216.0 168.0 L 219.0 168.0 L 222.0 168.0 L 225.0 168.0 L 228.0 168.0 L 231.0 168.0 L 231.0 188.0 L 234.0 188.0 L 237.0 188.0 L 240.0 188.0 L 243.0 188.0 L 246.0 188.0 L 249.0 188.0 L 249.0 208.0 L 252.0 208.0 L 255.0 208.0 L 258.0 208.0 L 261.0 208.0 L 264.0 208.0 L 267.0 208.0 L 270.0 208.0 L 273.0 208.0 L 276.0 208.0 L 279.0 208.0 L 282.0 208.0 L 285.0 208.0 L 288.0 208.0 L 291.0 208.0 L 294.0 208.0 L 297.0 208.0 L 297.0 188.0 L 300.0 188.0 L 303.0 188.0 L 306.0 188.0 L 309.0 188.0 L 312.0 188.0 L 315.0 188.0 L 318.0 188.0 L 321.0 188.0 L 324.0 188.0 L 327.0 188.0 L 330.0 188.0 L 333.0 188.0 L 336.0 188.0 L 339.0 188.0 L 339.0 168.0 L 342.0 168.0 L 345.0 168.0 L 348.0 168.0 L 351.0 168.0 L 354.0 168.0 L 357.0 168.0 L 360.0 168.0 L 363.0 168.0 L 366.0 168.0 L 369.0 168.0 L 372.0 168.0 L 375.0 168.0 L 378.0 168.0 L 381.0 168.0 L 384.0 168.0 L 387.0 168.0 L 390.0 168.0 L 393.0 168.0 L 396.0 168.0 L 399.0 168.0 L 402.0 168.0 L 405.0 168.0 L 408.0 168.0 L 411.0 168.0 L 414.0 168.0 L 417.0 168.0 L 420.0 168.0 L 423.0 168.0 L 426.0 168.0 L 429.0 168.0 L 432.0 168.0 L 435.0 168.0 L 438.0 168.0 L 441.0 168.0 L 444.0 168.0 L 447.0 168.0 L 450.0 168.0 L 453.0 168.0 L 456.0 168.0 L 459.0 168.0 L 462.0 168.0 L 465.0 168.0 L 468.0 168.0 L 468.0 148.0 L 471.0 148.0 L 474.0 148.0 L 477.0 148.0 L 480.0 148.0 L 483.0 148.0 L 486.0 148.0 L 489.0 148.0 L 492.0 148.0 L 495.0 148.0 L 498.0 148.0 L 501.0 148.0 L 501.0 128.0 L 504.0 128.0 L 507.0 128.0 L 510.0 128.0 L 513.0 128.0 L 516.0 128.0 L 519.0 128.0 L 522.0 128.0 L 525.0 128.0 L 528.0 128.0 L 531.0 128.0 L 534.0 128.0 L 537.0 128.0 L 540.0 128.0 L 543.0 128.0 L 546.0 128.0 L 549.0 128.0 L 552.0 128.0 L 552.0 148.0 L 555.0 148.0 L 558.0 148.0 L 561.0 148.0 L 564.0 148.0 L 567.0 148.0 L 570.0 148.0 L 570.0 168.0 L 573.0 168.0 L 576.0 168.0 L 579.0 168.0 L 582.0 168.0 L 585.0 168.0 L 588.0 168.0 L 591.0 168.0 L 591.0 188.0 L 594.0 188.0 L 597.0 188.0 L 600.0 188.0 L 603.0 188.0 L 606.0 188.0 L 609.0 188.0 L 612.0 188.0 L 615.0 188.0 L 618.0 188.0 L 621.0 188.0 L 624.0 188.0 L 627.0 188.0 L 630.0 188.0 L 633.0 188.0 L 636.0 188.0 L 639.0 188.0 L 642.0 188.0 L 645.0 188.0 L 648.0 188.0 L 651.0 188.0 L 654.0 188.0 L 657.0 188.0 L 660.0 188.0 L 663.0 188.0 L 666.0 188.0 L 669.0 188.0 L 672.0 188.0 L 675.0 188.0 L 678.0 188.0 L 681.0 188.0 L 684.0 188.0 L 687.0 188.0 L 690.0 188.0 L 693.0 188.0 L 696.0 188.0 L 699.0 188.0 L 702.0 188.0 L 705.0 188.0 L 708.0 188.0 L 711.0 188.0 L 714.0 188.0 L 717.0 188.0 L 720.0 188.0 L 723.0 188.0 L 726.0 188.0 L 729.0 188.0 L 732.0 188.0 L 735.0 188.0 L 738.0 188.0 L 741.0 188.0 L 744.0 188.0 L 747.0 188.0 L 750.0 188.0 L 753.0 188.0 L 756.0 188.0 L 759.0 188.0 L 762.0 188.0 L 765.0 188.0 L 768.0 188.0 L 771.0 188.0 L 774.0 188.0 L 777.0 188.0 L 780.0 188.0 L 783.0 188.0 L 786.0 188.0 L 789.0 188.0 L 792.0 188.0 L 795.0 188.0 L 798.0 188.0 L 801.0 188.0 L 804.0 188.0 L 807.0 188.0 L 810.0 188.0 L 810.0 168.0 L 813.0 168.0 L 816.0 168.0 L 819.0 168.0 L 822.0 168.0 L 825.0 168.0 L 828.0 168.0 L 831.0 168.0 L 831.0 148.0 L 834.0 148.0 L 837.0 148.0 L 840.0 148.0 L 843.0 148.0 L 846.0 148.0 L 849.0 148.0 L 849.0 128.0 L 852.0 128.0 L 855.0 128.0 L 858.0 128.0 L 861.0 128.0 L 864.0 128.0 L 867.0 128.0 L 870.0 128.0 L 873.0 128.0 L 876.0 128.0 L 879.0 128.0 L 882.0 128.0 L 885.0 128.0 L 888.0 128.0 L 891.0 128.0 L 894.0 128.0 L 897.0 128.0 L 897.0 148.0 L 900.0 148.0 L 903.0 148.0 L 906.0 148.0 L 909.0 148.0 L 912.0 148.0 L 915.0 148.0 L 918.0 148.0 L 921.0 148.0 L 924.0 148.0 L 927.0 148.0 L 930.0 148.0 L 933.0 148.0 L 936.0 148.0 L 939.0 148.0 L 939.0 168.0 L 942.0 168.0 L 945.0 168.0 L 948.0 168.0 L 951.0 168.0 L 954.0 168.0 L 957.0 168.0 L 960.0 168.0 L 963.0 168.0 L 966.0 168.0 L 969.0 168.0 L 972.0 168.0 L 975.0 168.0 L 978.0 168.0 L 981.0 168.0 L 984.0 168.0 L 987.0 168.0 L 990.0 168.0 L 993.0 168.0 L 996.0 168.0 L 999.0 168.0 L 1002.0 168.0 L 1005.0 168.0 L 1008.0 168.0 L 1011.0 168.0 L 1014.0 168.0 L 1017.0 168.0 L 1020.0 168.0 L 1023.0 168.0 L 1026.0 168.0 L 1029.0 168.0 L 1032.0 168.0 L 1035.0 168.0 L 1038.0 168.0 L 1041.0 168.0 L 1044.0 168.0 L 1047.0 168.0 L 1050.0 168.0 L 1053.0 168.0 L 1056.0 168.0 L 1059.0 168.0 L 1062.0 168.0 L 1065.0 168.0 L 1068.0 168.0 L 1068.0 188.0 L 1071.0 188.0 L 1074.0 188.0 L 1077.0 188.0 L 1080.0 188.0 L 1083.0 188.0 L 1086.0 188.0 L 1089.0 188.0 L 1092.0 188.0 L 1095.0 188.0 L 1098.0 188.0 L 1101.0 188.0 L 1101.0 208.0 L 1104.0 208.0 L 1107.0 208.0 L 1110.0 208.0 L 1113.0 208.0 L 1116.0 208.0 L 1119.0 208.0 L 1122.0 208.0 L 1125.0 208.0 L 1128.0 208.0 L 1131.0 208.0 L 1134.0 208.0 L 1137.0 208.0 L 1140.0 208.0 L 1143.0 208.0 L 1146.0 208.0 L 1149.0 208.0 L 1152.0 208.0 L 1152.0 188.0 L 1155.0 188.0 L 1158.0 188.0 L 1161.0 188.0 L 1164.0 188.0 L 1167.0 188.0 L 1170.0 188.0 L 1170.0 168.0 L 1173.0 168.0 L 1176.0 168.0 L 1179.0 168.0 L 1182.0 168.0 L 1185.0 168.0 L 1188.0 168.0 L 1191.0 168.0 L 1191.0 148.0 L 1194.0 148.0 L 1197.0 148.0 L 1200.0 148.0 L 1203.0 148.0 L 1206.0 148.0 L 1209.0 148.0 L 1212.0 148.0 L 1215.0 148.0 L 1218.0 148.0 L 1221.0 148.0 L 1224.0 148.0 L 1227.0 148.0 L 1230.0 148.0 L 1233.0 148.0 L 1236.0 148.0 L 1239.0 148.0 L 1242.0 148.0 L 1245.0 148.0 L 1248.0 148.0 L 1251.0 148.0 L 1254.0 148.0 L 1257.0 148.0 L 1260.0 148.0 L 1263.0 148.0 L 1266.0 148.0 L 1269.0 148.0 L 1272.0 148.0 L 1275.0 148.0 L 1278.0 148.0 L 1281.0 148.0 L 1284.0 148.0 L 1287.0 148.0 L 1290.0 148.0 L 1293.0 148.0 L 1296.0 148.0 L 1299.0 148.0 L 1302.0 148.0 L 1305.0 148.0 L 1308.0 148.0 L 1311.0 148.0 L 1314.0 148.0 L 1317.0 148.0 L 1320.0 148.0 L 1323.0 148.0 L 1326.0 148.0 L 1329.0 148.0 L 1332.0 148.0 L 1335.0 148.0 L 1338.0 148.0 L 1341.0 148.0 L 1344.0 148.0 L 1347.0 148.0 L 1350.0 148.0 L 1353.0 148.0 L 1356.0 148.0 L 1359.0 148.0 L 1362.0 148.0 L 1365.0 148.0 L 1368.0 148.0 L 1371.0 148.0 L 1374.0 148.0 L 1377.0 148.0 L 1380.0 148.0 L 1383.0 148.0 L 1386.0 148.0 L 1389.0 148.0 L 1392.0 148.0 L 1395.0 148.0 L 1398.0 148.0 L 1401.0 148.0 L 1404.0 148.0 L 1407.0 148.0 L 1410.0 148.0 L 1410.0 168.0 L 1413.0 168.0 L 1416.0 168.0 L 1419.0 168.0 L 1422.0 168.0 L 1425.0 168.0 L 1428.0 168.0 L 1431.0 168.0 L 1431.0 188.0 L 1434.0 188.0 L 1437.0 188.0 L 1440.0 188.0 L 1443.0 188.0 L 1446.0 188.0 L 1449.0 188.0 L 1449.0 208.0 L 1452.0 208.0 L 1455.0 208.0 L 1458.0 208.0 L 1461.0 208.0 L 1464.0 208.0 L 1467.0 208.0 L 1470.0 208.0 L 1473.0 208.0 L 1476.0 208.0 L 1479.0 208.0 L 1482.0 208.0 L 1485.0 208.0 L 1488.0 208.0 L 1491.0 208.0 L 1494.0 208.0 L 1497.0 208.0 L 1497.0 188.0 L 1500.0 188.0 L 1503.0 188.0 L 1506.0 188.0 L 1509.0 188.0 L 1512.0 188.0 L 1515.0 188.0 L 1518.0 188.0 L 1521.0 188.0 L 1524.0 188.0 L 1527.0 188.0 L 1530.0 188.0 L 1533.0 188.0 L 1536.0 188.0 L 1539.0 188.0 L 1539.0 168.0 L 1542.0 168.0 L 1545.0 168.0 L 1548.0 168.0 L 1551.0 168.0 L 1554.0 168.0 L 1557.0 168.0 L 1560.0 168.0 L 1563.0 168.0 L 1566.0 168.0 L 1569.0 168.0 L 1572.0 168.0 L 1575.0 168.0 L 1578.0 168.0 L 1581.0 168.0 L 1584.0 168.0 L 1587.0 168.0 L 1590.0 168.0 L 1593.0 168.0 L 1596.0 168.0 L 1599.0 168.0 L 1602.0 168.0 L 1605.0 168.0 L 1608.0 168.0 L 1611.0 168.0 L 1614.0 168.0 L 1617.0 168.0 L 1620.0 168.0 L 1623.0 168.0 L 1626.0 168.0 L 1629.0 168.0 L 1632.0 168.0 L 1635.0 168.0 L 1638.0 168.0 L 1641.0 168.0 L 1644.0 168.0 L 1647.0 168.0 L 1650.0 168.0 L 1653.0 168.0 L 1656.0 168.0 L 1659.0 168.0 L 1662.0 168.0 L 1665.0 168.0 L 1668.0 168.0 L 1668.0 148.0 L 1671.0 148.0 L 1674.0 148.0 L 1677.0 148.0 L 1680.0 148.0 L 1683.0 148.0 L 1686.0 148.0 L 1689.0 148.0 L 1692.0 148.0 L 1695.0 148.0 L 1698.0 148.0 L 1701.0 148.0 L 1701.0 128.0 L 1704.0 128.0 L 1707.0 128.0 L 1710.0 128.0 L 1713.0 128.0 L 1716.0 128.0 L 1719.0 128.0 L 1722.0 128.0 L 1725.0 128.0 L 1728.0 128.0 L 1731.0 128.0 L 1734.0 128.0 L 1737.0 128.0 L 1740.0 128.0 L 1743.0 128.0 L 1746.0 128.0 L 1749.0 128.0 L 1752.0 128.0 L 1752.0 148.0 L 1755.0 148.0 L 1758.0 148.0 L 1761.0 148.0 L 1764.0 148.0 L 1767.0 148.0 L 1770.0 148.0 L 1770.0 168.0 L 1773.0 168.0 L 1776.0 168.0 L 1779.0 168.0 L 1782.0 168.0 L 1785.0 168.0 L 1788.0 168.0 L 1791.0 168.0 L 1791.0 188.0 L 1794.0 188.0 L 1797.0 188.0 L 1800.0 188.0 L 1803.0 188.0 L 1806.0 188.0 L 1809.0 188.0 L 1812.0 188.0 L 1815.0 188.0 L 1818.0 188.0 L 1821.0 188.0 L 1824.0 188.0 L 1827.0 188.0 L 1830.0 188.0 L 1833.0 188.0 L 1836.0 188.0 L 1839.0 188.0 L 1842.0 188.0 L 1845.0 188.0 L 1848.0 188.0 L 1851.0 188.0 L 1854.0 188.0 L 1857.0 188.0 L 1860.0 188.0 L 1863.0 188.0 L 1866.0 188.0 L 1869.0 188.0 L 1872.0 188.0 L 1875.0 188.0 L 1878.0 188.0 L 1881.0 188.0 L 1884.0 188.0 L 1887.0 188.0 L 1890.0 188.0 L 1893.0 188.0 L 1896.0 188.0 L 1899.0 188.0 L 1902.0 188.0 L 1905.0 188.0 L 1908.0 188.0 L 1911.0 188.0 L 1914.0 188.0 L 1917.0 188.0 L 1920.0 188.0 L 1923.0 188.0 L 1926.0 188.0 L 1929.0 188.0 L 1932.0 188.0 L 1935.0 188.0 L 1938.0 188.0 L 1941.0 188.0 L 1944.0 188.0 L 1947.0 188.0 L 1950.0 188.0 L 1953.0 188.0 L 1956.0 188.0 L 1959.0 188.0 L 1962.0 188.0 L 1965.0 188.0 L 1968.0 188.0 L 1971.0 188.0 L 1974.0 188.0 L 1977.0 188.0 L 1980.0 188.0 L 1983.0 188.0 L 1986.0 188.0 L 1989.0 188.0 L 1992.0 188.0 L 1995.0 188.0 L 1998.0 188.0 L 2001.0 188.0 L 2004.0 188.0 L 2007.0 188.0 L 2010.0 188.0 L 2010.0 168.0 L 2013.0 168.0 L 2016.0 168.0 L 2019.0 168.0 L 2022.0 168.0 L 2025.0 168.0 L 2028.0 168.0 L 2031.0 168.0 L 2031.0 148.0 L 2034.0 148.0 L 2037.0 148.0 L 2040.0 148.0 L 2043.0 148.0 L 2046.0 148.0 L 2049.0 148.0 L 2049.0 128.0 L 2052.0 128.0 L 2055.0 128.0 L 2058.0 128.0 L 2061.0 128.0 L 2064.0 128.0 L 2067.0 128.0 L 2070.0 128.0 L 2073.0 128.0 L 2076.0 128.0 L 2079.0 128.0 L 2082.0 128.0 L 2085.0 128.0 L 2088.0 128.0 L 2091.0 128.0 L 2094.0 128.0 L 2097.0 128.0 L 2097.0 148.0 L 2100.0 148.0 L 2103.0 148.0 L 2106.0 148.0 L 2109.0 148.0 L 2112.0 148.0 L 2115.0 148.0 L 2118.0 148.0 L 2121.0 148.0 L 2124.0 148.0 L 2127.0 148.0 L 2130.0 148.0 L 2133.0 148.0 L 2136.0 148.0 L 2139.0 148.0 L 2139.0 168.0 L 2142.0 168.0 L 2145.0 168.0 L 2148.0 168.0 L 2151.0 168.0 L 2154.0 168.0 L 2157.0 168.0 L 2160.0 168.0 L 2163.0 168.0 L 2166.0 168.0 L 2169.0 168.0 L 2172.0 168.0 L 2175.0 168.0 L 2178.0 168.0 L 2181.0 168.0 L 2184.0 168.0 L 2187.0 168.0 L 2190.0 168.0 L 2193.0 168.0 L 2196.0 168.0 L 2199.0 168.0 L 2202.0 168.0 L 2205.0 168.0 L 2208.0 168.0 L 2211.0 168.0 L 2214.0 168.0 L 2217.0 168.0 L 2220.0 168.0 L 2223.0 168.0 L 2226.0 168.0 L 2229.0 168.0 L 2232.0 168.0 L 2235.0 168.0 L 2238.0 168.0 L 2241.0 168.0 L 2244.0 168.0 L 2247.0 168.0 L 2250.0 168.0 L 2253.0 168.0 L 2256.0 168.0 L 2259.0 168.0 L 2262.0 168.0 L 2265.0 168.0 L 2268.0 168.0 L 2268.0 188.0 L 2271.0 188.0 L 2274.0 188.0 L 2277.0 188.0 L 2280.0 188.0 L 2283.0 188.0 L 2286.0 188.0 L 2289.0 188.0 L 2292.0 188.0 L 2295.0 188.0 L 2298.0 188.0 L 2301.0 188.0 L 2301.0 208.0 L 2304.0 208.0 L 2307.0 208.0 L 2310.0 208.0 L 2313.0 208.0 L 2316.0 208.0 L 2319.0 208.0 L 2322.0 208.0 L 2325.0 208.0 L 2328.0 208.0 L 2331.0 208.0 L 2334.0 208.0 L 2337.0 208.0 L 2340.0 208.0 L 2343.0 208.0 L 2346.0 208.0 L 2349.0 208.0 L 2352.0 208.0 L 2352.0 188.0 L 2355.0 188.0 L 2358.0 188.0 L 2361.0 188.0 L 2364.0 188.0 L 2367.0 188.0 L 2370.0 188.0 L 2370.0 168.0 L 2373.0 168.0 L 2376.0 168.0 L 2379.0 168.0 L 2382.0 168.0 L 2385.0 168.0 L 2388.0 168.0 L 2391.0 168.0 L 2391.0 148.0 L 2394.0 148.0 L 2397.0 148.0 L 2400.0 148.0" fill="none" stroke="#43D9C4" stroke-width="2.6"
            stroke-linejoin="miter" stroke-linecap="square" filter="url(#glow)"/>
    </g>
  </g>

  <!-- sweeping read head -->
  <rect x="0" y="16" width="150" height="308" fill="url(#beam)" opacity="0.5">
    <animate attributeName="x" values="380;1180" dur="5.5s" repeatCount="indefinite"/>
    <animate attributeName="opacity" values="0;0.5;0" dur="5.5s" repeatCount="indefinite"/>
  </rect>
</g>

<!-- soften the scope edges into the background -->
<rect x="452" y="16" width="716" height="308" fill="url(#edgeFade)"/>

<!-- ── decision marker ──────────────────────────────────────── -->
<g opacity="0">
  <animate attributeName="opacity" values="0;1" begin="2s" dur="0.9s" fill="freeze"/>
  <rect x="1146" y="162" width="11" height="11" fill="#7FFFE9" filter="url(#softglow)">
    <animate attributeName="opacity" values="0.45;1;0.45" dur="2.4s" repeatCount="indefinite"/>
  </rect>
</g>

<!-- ── axis ─────────────────────────────────────────────────── -->
<g opacity="0">
  <animate attributeName="opacity" values="0;1" begin="1.9s" dur="1s" fill="freeze"/>
  <text x="452" y="308" font-family="'IBM Plex Mono',Menlo,monospace" font-size="10.5" fill="#5A757F" letter-spacing="3.5">NOISE</text>
  <line x1="512" y1="304" x2="1082" y2="304" stroke="#1B303A" stroke-width="1"/>
  <text x="1094" y="308" font-family="'IBM Plex Mono',Menlo,monospace" font-size="10.5" fill="#43D9C4" letter-spacing="3.5">DECISION</text>
</g>
</svg>
